<svg version="1.1" id="Layer_1" xmlns="http://www.w3.org/2000/svg" xmlns:xlink="http://www.w3.org/1999/xlink" x="0px" y="0px"
	 width="100%" viewBox="0 0 512 512" enable-background="new 0 0 512 512" xml:space="preserve">
<path fill="#000000" opacity="1.000000" stroke="none" 
	d="
M340.000000,513.000000 
	C226.694199,513.000000 113.888390,513.000000 1.041291,513.000000 
	C1.041291,342.402496 1.041291,171.804993 1.041291,1.103745 
	C171.555817,1.103745 342.111694,1.103745 512.833801,1.103745 
	C512.833801,171.666534 512.833801,342.333252 512.833801,513.000000 
	C455.471649,513.000000 397.985809,513.000000 340.000000,513.000000 
M179.073822,436.576813 
	C182.899841,439.012817 186.571121,441.745605 190.578049,443.834595 
	C210.448074,454.193634 232.008759,458.170197 254.061096,458.764771 
	C265.957733,459.085510 277.978027,457.452820 289.837311,455.898682 
	C306.911804,453.661102 322.819733,447.843689 337.062622,437.968048 
	C344.968170,432.486572 352.664154,425.983795 353.774750,416.110565 
	C355.665497,399.301636 355.948242,382.311890 356.936096,364.877014 
	C323.736755,364.877014 292.008118,364.877014 260.323212,364.877014 
	C260.323212,360.680786 260.323212,356.951355 260.323212,352.999298 
	C261.959717,352.999298 263.274048,352.999298 264.588379,352.999298 
	C311.576904,352.999298 358.568756,352.680450 405.552063,353.175781 
	C421.556244,353.344513 432.482666,346.253998 441.052704,333.787567 
	C454.788208,313.807007 459.396881,290.954468 460.759857,267.459106 
	C461.461853,255.358612 460.137054,243.065643 458.898438,230.944443 
	C456.873077,211.124039 450.655182,192.539185 438.659790,176.496475 
	C432.777649,168.629700 425.101807,161.590454 414.557129,161.169067 
	C398.603333,160.531540 382.605225,161.002594 366.040131,161.002594 
	C365.681458,164.861526 365.089111,168.532562 365.045532,172.210098 
	C364.915222,183.205856 365.021240,194.204254 364.977173,205.201385 
	C364.970642,206.830521 364.719025,208.468964 364.466003,210.085129 
	C362.893707,220.128922 358.046448,228.773743 351.752502,236.370987 
	C343.332001,246.535141 333.694489,256.040314 320.613159,259.420685 
	C310.750183,261.969391 300.232178,262.241974 289.965485,262.871765 
	C283.918152,263.242737 277.793945,262.085571 271.701477,262.045990 
	C252.540314,261.921478 233.376770,262.120636 214.216248,261.953094 
	C203.715652,261.861328 193.878265,263.569427 184.912552,269.499237 
	C171.607040,278.299286 162.949463,289.647552 162.981003,306.363464 
	C163.044830,340.188416 162.990707,374.013550 163.027084,407.838593 
	C163.028992,409.618958 163.404556,411.400726 163.630783,413.178741 
	C164.908478,423.220825 171.921768,429.518311 179.073822,436.576813 
M211.500000,161.000534 
	C176.335663,161.000443 141.171310,160.986282 106.007050,161.038498 
	C104.089546,161.041336 102.092979,161.349899 100.268532,161.936813 
	C86.627113,166.325180 78.539429,176.833038 72.160751,188.682816 
	C60.891666,209.617615 57.937508,232.626480 57.145786,255.926926 
	C56.885330,263.592133 58.211258,271.327332 59.013355,279.009460 
	C61.158607,299.555664 66.627266,319.044006 79.066383,335.877106 
	C86.749802,346.274567 96.352364,353.704529 110.464333,353.085876 
	C120.610924,352.641113 130.792709,352.999298 140.958786,352.999298 
	C145.221375,352.999268 149.483978,352.999268 153.999695,352.999268 
	C153.999695,337.188232 154.133179,322.041046 153.956833,306.897491 
	C153.819427,295.097443 156.304428,284.247314 163.998871,274.965668 
	C174.768600,261.974487 188.009552,252.934280 205.225021,252.140747 
	C225.461380,251.207977 245.745636,251.259155 266.010773,251.026520 
	C278.675049,250.881149 291.345215,250.835434 304.007294,251.057312 
	C312.420044,251.204727 320.184418,249.431335 327.304108,244.944412 
	C343.374847,234.816360 353.014832,220.395020 354.861420,201.464798 
	C355.936798,190.440002 355.862091,179.285660 355.957977,168.186600 
	C356.117798,149.689056 355.785278,131.185928 356.061462,112.691139 
	C356.308350,96.159706 349.410400,84.044121 335.733429,74.851463 
	C314.858826,60.821114 291.279968,56.556740 267.021820,55.215401 
	C256.064728,54.609531 244.943130,55.969654 233.959732,57.071388 
	C214.879852,58.985268 196.988953,64.746666 181.292252,76.018440 
	C169.940903,84.169838 162.150757,94.401024 162.886002,109.586685 
	C163.457581,121.391663 163.000336,133.246445 163.000351,145.079102 
	C163.000351,146.660843 163.000351,148.242584 163.000351,150.155731 
	C195.024460,150.155731 226.297714,150.155731 257.703064,150.155731 
	C257.703064,153.888748 257.703064,157.276962 257.703064,161.000534 
	C242.438995,161.000534 227.469498,161.000534 211.500000,161.000534 
z"/>
<path fill="#F8C63D" opacity="1.000000" stroke="none" 
	d="
M178.824692,436.313110 
	C171.921768,429.518311 164.908478,423.220825 163.630783,413.178741 
	C163.404556,411.400726 163.028992,409.618958 163.027084,407.838593 
	C162.990707,374.013550 163.044830,340.188416 162.981003,306.363464 
	C162.949463,289.647552 171.607040,278.299286 184.912552,269.499237 
	C193.878265,263.569427 203.715652,261.861328 214.216248,261.953094 
	C233.376770,262.120636 252.540314,261.921478 271.701477,262.045990 
	C277.793945,262.085571 283.918152,263.242737 289.965485,262.871765 
	C300.232178,262.241974 310.750183,261.969391 320.613159,259.420685 
	C333.694489,256.040314 343.332001,246.535141 351.752502,236.370987 
	C358.046448,228.773743 362.893707,220.128922 364.466003,210.085129 
	C364.719025,208.468964 364.970642,206.830521 364.977173,205.201385 
	C365.021240,194.204254 364.915222,183.205856 365.045532,172.210098 
	C365.089111,168.532562 365.681458,164.861526 366.040131,161.002594 
	C382.605225,161.002594 398.603333,160.531540 414.557129,161.169067 
	C425.101807,161.590454 432.777649,168.629700 438.659790,176.496475 
	C450.655182,192.539185 456.873077,211.124039 458.898438,230.944443 
	C460.137054,243.065643 461.461853,255.358612 460.759857,267.459106 
	C459.396881,290.954468 454.788208,313.807007 441.052704,333.787567 
	C432.482666,346.253998 421.556244,353.344513 405.552063,353.175781 
	C358.568756,352.680450 311.576904,352.999298 264.588379,352.999298 
	C263.274048,352.999298 261.959717,352.999298 260.323212,352.999298 
	C260.323212,356.951355 260.323212,360.680786 260.323212,364.877014 
	C292.008118,364.877014 323.736755,364.877014 356.936096,364.877014 
	C355.948242,382.311890 355.665497,399.301636 353.774750,416.110565 
	C352.664154,425.983795 344.968170,432.486572 337.062622,437.968048 
	C322.819733,447.843689 306.911804,453.661102 289.837311,455.898682 
	C277.978027,457.452820 265.957733,459.085510 254.061096,458.764771 
	C232.008759,458.170197 210.448074,454.193634 190.578049,443.834595 
	C186.571121,441.745605 182.899841,439.012817 178.824692,436.313110 
M327.639191,396.133636 
	C322.564148,390.125427 316.378204,387.068207 308.385223,389.027344 
	C300.286713,391.012360 294.089142,399.856262 295.003845,408.014374 
	C295.951996,416.470551 303.572418,423.370941 311.954254,424.063080 
	C323.818512,425.042786 336.142670,410.535919 327.639191,396.133636 
z"/>
<path fill="#377EF0" opacity="1.000000" stroke="none" 
	d="
M212.000000,161.000534 
	C227.469498,161.000534 242.438995,161.000534 257.703064,161.000534 
	C257.703064,157.276962 257.703064,153.888748 257.703064,150.155731 
	C226.297714,150.155731 195.024460,150.155731 163.000351,150.155731 
	C163.000351,148.242584 163.000351,146.660843 163.000351,145.079102 
	C163.000336,133.246445 163.457581,121.391663 162.886002,109.586685 
	C162.150757,94.401024 169.940903,84.169838 181.292252,76.018440 
	C196.988953,64.746666 214.879852,58.985268 233.959732,57.071388 
	C244.943130,55.969654 256.064728,54.609531 267.021820,55.215401 
	C291.279968,56.556740 314.858826,60.821114 335.733429,74.851463 
	C349.410400,84.044121 356.308350,96.159706 356.061462,112.691139 
	C355.785278,131.185928 356.117798,149.689056 355.957977,168.186600 
	C355.862091,179.285660 355.936798,190.440002 354.861420,201.464798 
	C353.014832,220.395020 343.374847,234.816360 327.304108,244.944412 
	C320.184418,249.431335 312.420044,251.204727 304.007294,251.057312 
	C291.345215,250.835434 278.675049,250.881149 266.010773,251.026520 
	C245.745636,251.259155 225.461380,251.207977 205.225021,252.140747 
	C188.009552,252.934280 174.768600,261.974487 163.998871,274.965668 
	C156.304428,284.247314 153.819427,295.097443 153.956833,306.897491 
	C154.133179,322.041046 153.999695,337.188232 153.999695,352.999268 
	C149.483978,352.999268 145.221375,352.999268 140.958786,352.999298 
	C130.792709,352.999298 120.610924,352.641113 110.464333,353.085876 
	C96.352364,353.704529 86.749802,346.274567 79.066383,335.877106 
	C66.627266,319.044006 61.158607,299.555664 59.013355,279.009460 
	C58.211258,271.327332 56.885330,263.592133 57.145786,255.926926 
	C57.937508,232.626480 60.891666,209.617615 72.160751,188.682816 
	C78.539429,176.833038 86.627113,166.325180 100.268532,161.936813 
	C102.092979,161.349899 104.089546,161.041336 106.007050,161.038498 
	C141.171310,160.986282 176.335663,161.000443 212.000000,161.000534 
M198.572357,123.101028 
	C203.384140,127.099983 212.862274,125.144051 218.327332,120.007843 
	C222.593521,115.998344 225.798508,108.556252 222.712997,101.280495 
	C219.848907,94.526810 212.129532,88.462883 205.828674,89.103729 
	C197.642471,89.936317 190.448502,95.131287 188.178635,103.734444 
	C186.350098,110.664902 190.652939,118.971375 198.572357,123.101028 
z"/>
<path fill="#000000" opacity="1.000000" stroke="none" 
	d="
M327.805115,396.475281 
	C336.142670,410.535919 323.818512,425.042786 311.954254,424.063080 
	C303.572418,423.370941 295.951996,416.470551 295.003845,408.014374 
	C294.089142,399.856262 300.286713,391.012360 308.385223,389.027344 
	C316.378204,387.068207 322.564148,390.125427 327.805115,396.475281 
z"/>
<path fill="#000000" opacity="1.000000" stroke="none" 
	d="
M198.188599,123.026978 
	C190.652939,118.971375 186.350098,110.664902 188.178635,103.734444 
	C190.448502,95.131287 197.642471,89.936317 205.828674,89.103729 
	C212.129532,88.462883 219.848907,94.526810 222.712997,101.280495 
	C225.798508,108.556252 222.593521,115.998344 218.327332,120.007843 
	C212.862274,125.144051 203.384140,127.099983 198.188599,123.026978 
z"/>
</svg>